<svg width="12" height="12" viewBox="0 0 12 12" fill="none" xmlns="http://www.w3.org/2000/svg">
<path fill-rule="evenodd" clip-rule="evenodd" d="M9.37361 1.94928C9.37388 1.94936 9.37412 1.94949 9.3746 1.94997L10.0507 2.62603C10.0511 2.62651 10.0513 2.62673 10.0513 2.62701C10.0514 2.62727 10.0514 2.62756 10.0513 2.62782C10.0513 2.62809 10.0511 2.62831 10.0507 2.62879L6.67913 6.00031L10.0507 9.37183C10.0511 9.3723 10.0513 9.37253 10.0513 9.3728C10.0514 9.37307 10.0514 9.37336 10.0513 9.37362C10.0513 9.37388 10.0511 9.37412 10.0507 9.3746L9.3746 10.0507C9.37412 10.0511 9.37389 10.0513 9.37361 10.0513C9.37335 10.0514 9.37307 10.0514 9.3728 10.0513C9.37253 10.0513 9.37231 10.0511 9.37183 10.0507L6.00031 6.67913L2.62879 10.0507C2.62832 10.0511 2.62809 10.0513 2.62782 10.0513C2.62755 10.0514 2.62727 10.0514 2.627 10.0513C2.62674 10.0513 2.62651 10.0511 2.62603 10.0507L1.94997 9.3746C1.94949 9.37412 1.94936 9.37389 1.94928 9.37361C1.9492 9.37335 1.9492 9.37307 1.94928 9.3728C1.94936 9.37253 1.94949 9.37231 1.94997 9.37183L5.32148 6.00031L1.94997 2.62879C1.94949 2.62832 1.94936 2.62809 1.94928 2.62782C1.9492 2.62755 1.9492 2.62727 1.94928 2.627C1.94936 2.62674 1.94949 2.62651 1.94997 2.62603L2.62603 1.94997C2.62651 1.94949 2.62673 1.94936 2.62701 1.94928C2.62727 1.9492 2.62756 1.9492 2.62782 1.94928C2.62809 1.94936 2.62831 1.94949 2.62879 1.94997L6.00031 5.32148L9.37183 1.94997C9.3723 1.94949 9.37253 1.94936 9.3728 1.94928C9.37307 1.9492 9.37336 1.9492 9.37362 1.94928H9.37361Z" fill="#2798C9"/>
</svg>
