<svg width="16" height="16" viewBox="0 0 16 16" fill="none" xmlns="http://www.w3.org/2000/svg">
<path d="M8 5C8.41146 5 8.79948 5.07812 9.16406 5.23438C9.52865 5.39062 9.84635 5.60417 10.1172 5.875C10.388 6.14583 10.6042 6.46615 10.7656 6.83594C10.9271 7.20573 11.0052 7.59375 11 8C11 8.41667 10.9219 8.80469 10.7656 9.16406C10.6094 9.52344 10.3958 9.84115 10.125 10.1172C9.85417 10.3932 9.53385 10.6094 9.16406 10.7656C8.79427 10.9219 8.40625 11 8 11C7.58333 11 7.19531 10.9219 6.83594 10.7656C6.47656 10.6094 6.15885 10.3958 5.88281 10.125C5.60677 9.85417 5.39062 9.53646 5.23438 9.17188C5.07812 8.80729 5 8.41667 5 8C5 7.58854 5.07812 7.20052 5.23438 6.83594C5.39062 6.47135 5.60417 6.15365 5.875 5.88281C6.14583 5.61198 6.46354 5.39583 6.82812 5.23438C7.19271 5.07292 7.58333 4.99479 8 5Z" fill="black"/>
</svg>
