<svg width="12" height="12" viewBox="0 0 12 12" fill="none" xmlns="http://www.w3.org/2000/svg">
<path d="M6 4.5C5.187 4.5 4.5 5.187 4.5 6C4.5 6.813 5.187 7.5 6 7.5C6.813 7.5 7.5 6.813 7.5 6C7.5 5.187 6.813 4.5 6 4.5Z" fill="#333333"/>
<path d="M10 2.5H8.707L7.3535 1.1465C7.30715 1.09998 7.25205 1.06309 7.19138 1.03794C7.13071 1.0128 7.06567 0.999905 7 1H5C4.93433 0.999905 4.86929 1.0128 4.80862 1.03794C4.74795 1.06309 4.69285 1.09998 4.6465 1.1465L3.293 2.5H2C1.4485 2.5 1 2.9485 1 3.5V9C1 9.5515 1.4485 10 2 10H10C10.5515 10 11 9.5515 11 9V3.5C11 2.9485 10.5515 2.5 10 2.5ZM6 8.5C4.645 8.5 3.5 7.355 3.5 6C3.5 4.645 4.645 3.5 6 3.5C7.355 3.5 8.5 4.645 8.5 6C8.5 7.355 7.355 8.5 6 8.5Z" fill="#333333"/>
</svg>
