<svg width="238" height="151" viewBox="0 0 238 151" fill="none" xmlns="http://www.w3.org/2000/svg">
<path d="M121.03 83.3106C117.167 85.4164 113.349 87.6503 108.885 88.2431C108.178 88.3371 107.204 88.2704 106.711 87.8541C99.6347 81.8789 92.6199 75.8313 85.5946 69.7962C85.5026 69.7172 85.4649 69.575 85.4373 69.5256C89.0868 67.7893 92.7451 66.0487 96.4034 64.3082C96.3163 64.1071 96.2292 63.906 96.1422 63.7049C93.2881 64.2622 90.4164 64.7432 87.5841 65.3952C83.7038 66.2885 80.6721 65.4484 78.7014 61.7092C77.9592 60.3009 76.8926 59.0636 75.9978 57.7827C79.5874 57.5791 82.9432 57.6685 86.2014 57.1474C93.6709 55.9525 99.9345 52.0542 105.837 47.5791C107.178 46.563 107.947 46.6625 109.171 47.6856C118.798 55.7343 128.477 63.7218 138.165 71.6979C139.007 72.3912 139.556 73.0012 139.114 74.1702C135.475 83.7993 129.15 90.8659 119.55 94.8646C117.864 95.5667 116.414 95.4121 115.003 94.2418C113.95 93.3688 112.81 92.6015 111.836 91.8815C115.03 89.1801 118.146 86.5438 121.412 83.7468C121.705 83.4227 121.849 83.2592 122.078 83.0446C122.16 82.9036 122.156 82.8139 122.152 82.7241C122.026 82.7763 121.9 82.8285 121.665 82.9008C121.38 83.0508 121.205 83.1807 121.03 83.3106ZM117.066 69.2145C117.353 67.138 117.64 65.0616 117.957 62.7695C115.702 63.5601 113.789 64.2022 111.898 64.9012C108.952 65.9897 107.716 67.7528 108.068 70.2797C108.361 72.3854 110.062 73.9167 112.219 74.0165C114.74 74.1331 116.165 72.7868 117.066 69.2145Z" fill="#58B6DF"/>
<path d="M97.026 17.8987C102.432 13.8163 107.741 9.838 113.017 5.81681C115.978 3.5596 118.057 3.47456 121.042 5.69345C127.842 10.7482 134.628 15.8213 141.415 20.8924C141.777 21.1625 142.101 21.483 142.639 21.9513C140.887 24.186 139.169 26.3772 137.274 28.7948C134.442 26.6989 131.664 24.6446 128.888 22.5891C125.404 20.0098 121.892 17.4663 118.454 14.8266C117.455 14.0589 116.77 14.003 115.726 14.7884C100.509 26.2406 85.2643 37.6558 70.0036 49.05C69.1291 49.7029 68.1151 50.3149 67.0742 50.5678C65.087 51.0506 63.1173 49.8529 62.2979 47.941C61.4612 45.9885 62.0057 43.9109 63.8519 42.5342C69.4331 38.3727 75.0513 34.2608 80.6421 30.1121C86.0746 26.0809 91.4911 22.0282 97.026 17.8987Z" fill="#5BB6E0"/>
<path d="M169.422 11.7415C160.309 22.703 151.284 33.5498 142.348 44.2883C139.676 42.104 137.021 39.9331 134.293 37.7031C137.829 33.3782 141.509 28.8601 145.207 24.3572C150.542 17.8622 155.892 11.3801 161.231 4.8886C162.671 3.13742 164.531 2.50106 166.687 3.03699C168.753 3.55042 170.383 4.89767 170.549 7.02592C170.666 8.52334 169.887 10.0906 169.422 11.7415ZM166.845 9.46476C166.235 7.47676 165.129 6.63918 163.691 7.12393C162.236 7.61434 161.672 8.79906 162.239 10.0706C162.596 10.8706 163.628 11.7174 164.478 11.8695C165.794 12.1052 166.603 11.1015 166.845 9.46476Z" fill="#94C84A"/>
<path d="M99.3246 132.741C96.8976 133.714 96.7258 135.714 96.7224 137.725C96.7172 140.747 96.8295 143.769 96.8661 146.791C96.8968 149.321 96.4992 149.726 94.1035 149.73C91.6175 149.734 91.219 149.355 91.2014 146.903C91.1764 143.418 91.2113 139.933 91.1332 136.45C91.0931 134.661 90.2753 133.272 88.4618 132.719C86.6331 132.161 84.8551 132.28 83.6771 133.958C83.1549 134.702 82.8861 135.763 82.8601 136.691C82.7647 140.107 82.8246 143.528 82.8152 146.947C82.8085 149.367 82.274 149.821 79.4896 149.816C77.5824 149.813 77.0518 149.188 77.0454 146.88C77.0367 143.724 77.1586 140.563 77.023 137.413C76.6636 129.067 82.9013 126.912 88.2924 127.406C89.9762 127.561 91.5656 128.602 93.2368 129.11C93.8605 129.3 94.7538 129.385 95.2518 129.077C98.1839 127.265 101.297 126.973 104.548 127.77C108.156 128.654 110.684 131.914 110.798 135.93C110.907 139.741 110.821 143.557 110.867 147.369C110.89 149.224 109.857 149.694 108.228 149.735C106.526 149.779 105.157 149.553 105.142 147.433C105.117 144.146 105.116 140.859 105.087 137.572C105.051 133.393 103.603 132.14 99.3246 132.741Z" fill="#5EB7DF"/>
<path d="M0.942017 146.75C0.945165 139.019 0.942751 131.465 0.956019 123.91C0.960836 121.171 1.5825 120.561 4.32793 120.554C7.48104 120.547 10.6409 120.428 13.7856 120.593C17.6054 120.793 20.9288 122.184 22.5029 125.958C23.9242 129.366 23.8108 132.814 21.3437 135.793C20.4491 136.873 19.1719 137.636 17.8522 138.723C19.0453 140.493 20.3466 142.428 21.6545 144.359C21.8751 144.685 22.1626 144.97 22.353 145.31C23.0736 146.601 24.6918 147.892 22.7456 149.352C21.3512 150.398 18.2884 149.684 17.3156 148.19C16.1339 146.375 15.0251 144.514 13.8802 142.675C11.5993 139.013 11.5759 139.003 6.75067 139.52C6.75067 141.868 6.6946 144.268 6.76953 146.664C6.82332 148.384 6.56155 149.646 4.43107 149.707C1.80636 149.783 1.23872 149.396 0.942017 146.75ZM6.73535 130.939C6.73535 132.018 6.73535 133.097 6.73535 134.435C9.64266 134.26 12.2079 134.298 14.7009 133.893C16.6137 133.581 17.7264 131.803 17.6813 130.015C17.6306 128.008 16.5386 126.324 14.5519 126.042C12.0144 125.682 9.41747 125.741 6.73388 125.615C6.73388 127.547 6.73388 129.049 6.73535 130.939Z" fill="#5DB6DE"/>
<path d="M141.956 47.9942C145.313 53.6191 146.047 59.7158 143.876 64.1325C134.282 56.1734 124.715 48.2361 114.987 40.165C119.352 37.3831 123.916 37.044 128.656 38.2532C134.32 39.6981 138.601 43.1157 141.956 47.9942Z" fill="#94C84A"/>
<path d="M138.935 150.04C132.729 148.792 128.728 145.229 127.143 139.295C125.576 133.433 126.647 128.071 131.17 123.72C135.909 119.161 144.425 118.553 150.026 122.315C151.799 123.507 152.173 124.605 151.302 126.07C150.309 127.739 149.016 128.012 147.13 126.95C141.25 123.636 134.81 125.704 132.829 131.543C131.444 135.627 132.809 140.568 135.992 142.986C139.232 145.448 143.696 145.476 147.39 142.941C148.817 141.961 150.031 141.829 151.163 143.25C152.263 144.631 152.131 145.93 150.601 147.179C147.236 149.926 143.311 150.603 138.935 150.04Z" fill="#97C94F"/>
<path d="M187.912 135.037C188.067 135.7 188.201 136.209 188.287 136.725C188.828 139.993 188.002 140.945 184.719 140.932C180.653 140.915 176.587 140.928 172.5 140.928C172.802 143.094 174.429 144.649 176.711 145.056C179.007 145.466 181.155 145.039 183.156 143.85C184.43 143.094 185.696 142.876 186.564 144.349C187.358 145.694 187.184 146.944 185.845 147.99C181.361 151.495 172.95 150.704 169.199 146.383C165.266 141.852 165.753 134.3 170.146 130.083C174.671 125.74 185.086 125.899 187.912 135.037ZM179.67 136.576C180.694 136.576 181.719 136.576 182.764 136.576C182.325 133.628 180.283 131.966 177.424 132.051C175.11 132.12 172.152 134.046 172.433 136.574C174.709 136.574 176.998 136.574 179.67 136.576Z" fill="#97C951"/>
<path d="M200.829 132.211C199.047 132.532 197.423 132.777 195.845 133.194C194.533 133.542 193.54 133.194 193.128 131.98C192.695 130.708 192.574 129.173 194.16 128.606C198.607 127.015 203.136 126.54 207.551 128.694C210.351 130.06 211.201 132.697 211.365 135.573C211.474 137.471 211.421 139.381 211.375 141.284C211.254 146.247 209.193 149.005 204.309 149.688C201.464 150.086 198.412 149.881 195.588 149.297C192.517 148.661 190.954 146.095 190.926 143.024C190.899 140.03 192.369 137.847 195.451 136.848C197.111 136.309 198.906 136.103 200.657 135.951C202.343 135.804 204.051 135.919 205.742 135.919C205.796 133.255 204.579 132.36 200.829 132.211ZM200.99 145.403C205.088 145.172 206.404 143.737 205.763 139.87C203.592 139.996 201.374 140.009 199.19 140.29C197.783 140.472 196.464 141.19 196.482 142.896C196.502 144.77 197.944 145.175 199.461 145.36C199.85 145.408 200.247 145.391 200.99 145.403Z" fill="#97C951"/>
<path d="M58.4002 127.929C63.2538 126.611 67.4981 127.347 70.7263 131.189C73.7777 134.821 74.2658 139.091 72.5728 143.43C70.5248 148.678 64.6201 151.31 59.0347 149.746C53.516 148.201 50.1623 142.897 51.0979 137.108C51.7995 132.766 53.9927 129.553 58.4002 127.929ZM65.4546 133.283C63.8192 133.05 62.1044 132.39 60.5652 132.676C57.634 133.22 56.4356 135.85 56.7624 139.929C56.9942 142.822 58.8651 144.786 61.5938 144.999C64.6611 145.24 67.0785 143.706 67.6781 140.872C68.2583 138.129 68.0302 135.483 65.4546 133.283Z" fill="#5DB6DE"/>
<path d="M39.5846 149.95C34.6473 150.513 30.4866 149.476 27.7575 145.166C24.7662 140.443 25.6358 133.842 29.6268 130.152C33.5088 126.563 39.7946 126.279 44.1483 129.656C47.7508 132.451 48.9558 136.339 48.2867 140.713C47.5363 145.619 44.5774 148.685 39.5846 149.95ZM33.2109 143.518C35.1929 145.286 37.4656 145.501 39.7946 144.486C42.0373 143.508 42.713 141.413 42.9252 139.181C43.2796 135.456 40.878 132.489 37.486 132.359C34.0485 132.227 31.5275 134.707 31.6573 138.508C31.7123 140.119 32.5366 141.703 33.2109 143.518Z" fill="#5DB6DE"/>
<path d="M236.929 148.567C235.655 150.292 233.903 149.997 232.566 149.417C231.866 149.113 231.46 147.504 231.406 146.459C231.246 143.381 231.374 140.289 231.303 137.204C231.227 133.951 229.524 132.3 226.414 132.322C223.314 132.344 221.708 134.017 221.687 137.304C221.666 140.653 221.631 144.002 221.701 147.349C221.743 149.392 220.552 149.714 218.91 149.732C217.302 149.75 215.989 149.546 215.996 147.488C216.011 143.615 215.867 139.736 216.019 135.868C216.216 130.864 219.812 127.737 225.545 127.314C232.736 126.784 237.028 130.746 237.056 137.978C237.069 141.456 237.019 144.934 236.929 148.567Z" fill="#97C951"/>
<path d="M124.743 57.6983C119.663 53.5294 114.682 49.4585 109.73 45.3524C108.058 43.9662 108.114 42.442 109.737 41.1048C110.958 40.0984 111.986 40.4692 113.065 41.3721C120.362 47.4815 127.669 53.5799 134.99 59.6618C137.716 61.9267 140.475 64.1533 143.244 66.3662C144.513 67.3811 144.9 68.523 143.996 69.9598C142.883 71.7276 141.815 71.9013 140.137 70.5107C135.033 66.2794 129.947 62.0268 124.743 57.6983Z" fill="#94C84A"/>
<path d="M157.019 43.5686C155.053 42.0455 153.199 40.6069 151.212 39.0658C153.124 36.7412 154.904 34.5769 156.815 32.252C160.66 35.1497 164.37 37.9487 168.084 40.7438C168.976 41.4153 169.904 42.0419 170.77 42.7448C172.685 44.2981 173.035 46.8073 171.644 48.7282C170.234 50.6757 167.709 51.2909 165.723 49.9314C162.797 47.929 159.99 45.7543 157.019 43.5686Z" fill="#5BB6E0"/>
<path d="M160.891 131.157C160.894 135.035 160.903 138.716 160.898 142.397C160.896 143.66 161.259 144.651 162.719 144.694C164.311 144.741 164.689 145.709 164.69 147.051C164.692 148.538 164.17 149.562 162.553 149.868C158.695 150.599 155.557 148.182 155.475 144.182C155.372 139.189 155.432 134.192 155.419 129.196C155.414 126.897 155.349 124.596 155.412 122.299C155.471 120.12 155.986 119.703 158.188 119.737C160.248 119.769 160.854 120.355 160.878 122.48C160.91 125.306 160.89 128.133 160.891 131.157Z" fill="#ACD474"/>
<path d="M115.985 135.104C115.984 133.201 115.965 131.495 115.988 129.79C116.014 127.821 117.426 127.685 118.878 127.711C120.242 127.735 121.565 127.845 121.566 129.758C121.57 135.727 121.626 141.695 121.621 147.664C121.62 149.629 120.189 149.695 118.722 149.723C117.152 149.752 115.988 149.424 115.998 147.502C116.019 143.435 115.992 139.368 115.985 135.104Z" fill="#5EB7DF"/>
<path d="M114.641 123.677C115.118 124.451 115.499 125.103 115.94 125.857C110.786 125.895 106.235 121.188 106.678 116.42C106.718 115.987 107.511 115.274 107.945 115.281C113 115.366 116.702 119.226 116.815 124.226C116.332 123.828 115.75 123.335 115.132 122.889C115.109 122.872 114.749 123.322 114.641 123.677ZM112.417 120.495C112.465 120.714 112.502 120.936 112.574 121.146C112.584 121.175 112.769 121.143 112.873 121.14C112.81 120.952 112.748 120.763 112.417 120.495Z" fill="#97C951"/>
<path d="M118.312 121.992C119.581 117.946 122.486 115.62 126.458 115.186C127.815 115.038 128.173 115.544 128.18 116.802C128.206 121.582 124.873 125.104 119.565 125.496C120.306 124.163 120.967 122.973 121.629 121.784C121.504 121.668 121.379 121.553 121.255 121.438C120.443 122.493 119.632 123.548 118.821 124.603C118.598 124.458 118.376 124.312 118.153 124.166C118.196 123.492 118.239 122.817 118.312 121.992ZM121.632 121.156C121.802 121.187 121.973 121.217 122.143 121.248C122.037 121.14 121.932 121.033 121.632 121.156Z" fill="#97C951"/>
<path d="M144.113 7.58218C142.825 6.83973 141.638 6.20771 140.16 5.42109C143.226 5.02766 145.088 3.44933 145.646 0.338867C146.387 3.3928 148.327 4.92372 151.329 5.53013C147.173 7.35163 147.173 7.35163 145.79 10.7508C145.234 9.67256 144.724 8.68257 144.113 7.58218Z" fill="#F6822E"/>
<path d="M117.018 69.3703C116.165 72.7869 114.74 74.1332 112.219 74.0166C110.062 73.9168 108.361 72.3854 108.068 70.2798C107.716 67.7529 108.952 65.9898 111.898 64.9013C113.789 64.2022 115.702 63.5601 117.957 62.7695C117.64 65.0617 117.353 67.1381 117.018 69.3703Z" fill="#FAFDFD"/>
<path d="M121.994 83.0955C121.849 83.2589 121.705 83.4223 121.46 83.6241C121.302 83.6058 121.245 83.5491 121.109 83.4013C121.205 83.1804 121.38 83.0504 121.719 82.9546C121.883 82.9887 121.994 83.0955 121.994 83.0955Z" fill="#FEFFFF"/>
<path d="M121.829 82.9349C121.9 82.8285 122.026 82.7763 122.152 82.7241C122.156 82.8138 122.16 82.9036 122.078 83.0446C121.994 83.0958 121.883 82.989 121.829 82.9349Z" fill="#FEFFFF"/>
<path d="M166.843 9.61734C166.603 11.1017 165.794 12.1054 164.478 11.8697C163.628 11.7176 162.596 10.8708 162.239 10.0708C161.672 8.79925 162.236 7.61453 163.691 7.12412C165.129 6.63937 166.235 7.47696 166.843 9.61734Z" fill="#FAFDFD"/>
<path d="M6.73462 130.746C6.73389 129.05 6.73389 127.547 6.73389 125.615C9.41747 125.741 12.0144 125.682 14.5519 126.042C16.5386 126.324 17.6307 128.008 17.6813 130.015C17.7264 131.803 16.6137 133.582 14.7009 133.893C12.2079 134.299 9.64266 134.26 6.73535 134.435C6.73535 133.097 6.73535 132.018 6.73462 130.746Z" fill="#FAFDFD"/>
<path d="M179.478 136.575C176.998 136.574 174.709 136.574 172.433 136.574C172.152 134.046 175.11 132.12 177.424 132.051C180.283 131.966 182.325 133.628 182.764 136.576C181.719 136.576 180.694 136.576 179.478 136.575Z" fill="#FAFDFD"/>
<path d="M200.815 145.404C200.247 145.391 199.85 145.408 199.461 145.36C197.944 145.175 196.502 144.77 196.482 142.896C196.464 141.19 197.783 140.472 199.19 140.291C201.374 140.009 203.592 139.996 205.763 139.871C206.404 143.737 205.088 145.172 200.815 145.404Z" fill="#FAFDFD"/>
<path d="M65.5739 133.374C68.0302 135.483 68.2583 138.129 67.6781 140.871C67.0785 143.706 64.6611 145.24 61.5938 144.999C58.8651 144.785 56.9942 142.822 56.7624 139.928C56.4356 135.85 57.634 133.22 60.5652 132.676C62.1044 132.39 63.8192 133.05 65.5739 133.374Z" fill="#FAFDFD"/>
<path d="M33.1111 143.408C32.5366 141.703 31.7123 140.119 31.6573 138.508C31.5275 134.707 34.0484 132.227 37.486 132.359C40.8779 132.489 43.2795 135.456 42.9252 139.181C42.713 141.413 42.0372 143.508 39.7946 144.486C37.4656 145.501 35.1929 145.285 33.1111 143.408Z" fill="#FAFDFD"/>
<path d="M112.551 120.535C112.748 120.763 112.81 120.952 112.873 121.14C112.769 121.144 112.584 121.175 112.574 121.146C112.502 120.936 112.465 120.714 112.551 120.535Z" fill="#FEFFFF"/>
<path d="M121.729 121.041C121.932 121.033 122.037 121.141 122.143 121.248C121.973 121.217 121.802 121.187 121.729 121.041Z" fill="#FEFFFF"/>
</svg>
