<svg width="96" height="96" viewBox="0 0 96 96" fill="none" xmlns="http://www.w3.org/2000/svg">
<g clip-path="url(#clip0_782_3054)">
<path d="M43.7579 8.99988C44.8831 7.87506 46.4089 7.24316 47.9999 7.24316C49.5909 7.24316 51.1167 7.87506 52.2419 8.99988L65.9999 22.7579V14.9999C65.9999 14.2042 66.3159 13.4412 66.8786 12.8786C67.4412 12.316 68.2042 11.9999 68.9999 11.9999H74.9999C75.7955 11.9999 76.5586 12.316 77.1212 12.8786C77.6838 13.4412 77.9999 14.2042 77.9999 14.9999V34.7579L92.1239 48.8759C92.4028 49.1548 92.6241 49.4859 92.775 49.8504C92.926 50.2148 93.0037 50.6054 93.0037 50.9999C93.0037 51.3943 92.926 51.785 92.775 52.1494C92.6241 52.5138 92.4028 52.845 92.1239 53.1239C91.845 53.4028 91.5138 53.6241 91.1494 53.775C90.785 53.926 90.3943 54.0037 89.9999 54.0037C89.6054 54.0037 89.2148 53.926 88.8504 53.775C88.4859 53.6241 88.1548 53.4028 87.8759 53.1239L47.9999 13.2419L17.9999 43.2419V80.9999C17.9999 81.7955 18.316 82.5586 18.8786 83.1212C19.4412 83.6838 20.2042 83.9999 20.9999 83.9999H44.9999C45.7955 83.9999 46.5586 84.3159 47.1212 84.8786C47.6838 85.4412 47.9999 86.2042 47.9999 86.9999C47.9999 87.7955 47.6838 88.5586 47.1212 89.1212C46.5586 89.6838 45.7955 89.9999 44.9999 89.9999H20.9999C18.6129 89.9999 16.3237 89.0517 14.6359 87.3638C12.9481 85.676 11.9999 83.3868 11.9999 80.9999V49.2419L8.12388 53.1239C7.84496 53.4028 7.51382 53.6241 7.14938 53.775C6.78495 53.926 6.39435 54.0037 5.99988 54.0037C5.60542 54.0037 5.21482 53.926 4.85038 53.775C4.48595 53.6241 4.15481 53.4028 3.87588 53.1239C3.59696 52.845 3.3757 52.5138 3.22474 52.1494C3.07379 51.785 2.99609 51.3943 2.99609 50.9999C2.99609 50.6054 3.07379 50.2148 3.22474 49.8504C3.3757 49.4859 3.59696 49.1548 3.87588 48.8759L43.7579 8.99988Z" fill="#58B6DF"/>
<path d="M96 75C96 80.5695 93.7875 85.911 89.8492 89.8492C85.911 93.7875 80.5695 96 75 96C69.4305 96 64.089 93.7875 60.1508 89.8492C56.2125 85.911 54 80.5695 54 75C54 69.4305 56.2125 64.089 60.1508 60.1508C64.089 56.2125 69.4305 54 75 54C80.5695 54 85.911 56.2125 89.8492 60.1508C93.7875 64.089 96 69.4305 96 75ZM75 63C74.2044 63 73.4413 63.3161 72.8787 63.8787C72.3161 64.4413 72 65.2044 72 66V75C72 75.7956 72.3161 76.5587 72.8787 77.1213C73.4413 77.6839 74.2044 78 75 78C75.7956 78 76.5587 77.6839 77.1213 77.1213C77.6839 76.5587 78 75.7956 78 75V66C78 65.2044 77.6839 64.4413 77.1213 63.8787C76.5587 63.3161 75.7956 63 75 63ZM75 87C75.7956 87 76.5587 86.6839 77.1213 86.1213C77.6839 85.5587 78 84.7956 78 84C78 83.2044 77.6839 82.4413 77.1213 81.8787C76.5587 81.3161 75.7956 81 75 81C74.2044 81 73.4413 81.3161 72.8787 81.8787C72.3161 82.4413 72 83.2044 72 84C72 84.7956 72.3161 85.5587 72.8787 86.1213C73.4413 86.6839 74.2044 87 75 87Z" fill="#58B6DF"/>
</g>
<defs>
<clipPath id="clip0_782_3054">
<rect width="96" height="96" fill="white"/>
</clipPath>
</defs>
</svg>
