<svg width="24" height="25" viewBox="0 0 24 25" fill="none" xmlns="http://www.w3.org/2000/svg">
<path d="M22.0828 11.7344C21.2589 9.99859 20.2784 8.58296 19.1414 7.48749L17.9489 8.67999C18.9213 9.60929 19.7684 10.825 20.5008 12.3391C18.5508 16.375 15.7828 18.2922 12 18.2922C10.8645 18.2922 9.81867 18.1173 8.86242 17.7676L7.57031 19.0598C8.89844 19.673 10.375 19.9797 12 19.9797C16.5047 19.9797 19.8656 17.6336 22.0828 12.9414C22.1719 12.7527 22.2182 12.5466 22.2182 12.3379C22.2182 12.1292 22.1719 11.9231 22.0828 11.7344ZM20.5929 4.21937L19.5937 3.21905C19.5763 3.20162 19.5557 3.18779 19.5329 3.17836C19.5101 3.16892 19.4857 3.16406 19.4611 3.16406C19.4365 3.16406 19.4121 3.16892 19.3893 3.17836C19.3665 3.18779 19.3458 3.20162 19.3284 3.21905L16.7651 5.78124C15.3518 5.05937 13.7634 4.69843 12 4.69843C7.49531 4.69843 4.13437 7.04452 1.91719 11.7367C1.82807 11.9254 1.78185 12.1315 1.78185 12.3402C1.78185 12.5489 1.82807 12.755 1.91719 12.9437C2.80297 14.8094 3.86937 16.3048 5.1164 17.4299L2.63625 19.9094C2.60111 19.9445 2.58137 19.9922 2.58137 20.0419C2.58137 20.0916 2.60111 20.1393 2.63625 20.1744L3.63679 21.175C3.67195 21.2101 3.71963 21.2299 3.76933 21.2299C3.81904 21.2299 3.86671 21.2101 3.90187 21.175L20.5929 4.48468C20.6103 4.46727 20.6242 4.44659 20.6336 4.42382C20.643 4.40106 20.6479 4.37666 20.6479 4.35202C20.6479 4.32738 20.643 4.30298 20.6336 4.28022C20.6242 4.25746 20.6103 4.23678 20.5929 4.21937ZM3.49922 12.3391C5.45156 8.30312 8.21953 6.38593 12 6.38593C13.2783 6.38593 14.4405 6.6053 15.495 7.05132L13.8473 8.69898C13.067 8.28264 12.1736 8.12812 11.2988 8.25822C10.4239 8.38832 9.61412 8.79615 8.98873 9.42153C8.36334 10.0469 7.95552 10.8568 7.82542 11.7316C7.69532 12.6064 7.84983 13.4998 8.26617 14.2801L6.31101 16.2353C5.2289 15.2802 4.29609 13.9862 3.49922 12.3391ZM9.28125 12.3391C9.28166 11.9258 9.37955 11.5184 9.56698 11.1501C9.7544 10.7817 10.0261 10.4628 10.3599 10.2192C10.6938 9.97553 11.0804 9.81409 11.4883 9.74795C11.8963 9.68181 12.3141 9.71284 12.7078 9.83851L9.4057 13.1406C9.32294 12.8815 9.28095 12.6111 9.28125 12.3391Z" fill="#A4A4A4"/>
<path d="M11.9063 14.9642C11.8252 14.9642 11.7452 14.9604 11.666 14.9532L10.428 16.1911C11.1726 16.4763 11.9839 16.5396 12.7637 16.3736C13.5435 16.2075 14.2586 15.8191 14.8224 15.2553C15.3862 14.6915 15.7746 13.9765 15.9406 13.1966C16.1067 12.4168 16.0434 11.6055 15.7582 10.861L14.5202 12.0989C14.5275 12.1781 14.5313 12.2581 14.5313 12.3392C14.5314 12.6839 14.4637 13.0254 14.3318 13.3439C14.2 13.6625 14.0066 13.9519 13.7628 14.1957C13.519 14.4395 13.2296 14.6329 12.911 14.7647C12.5925 14.8966 12.251 14.9644 11.9063 14.9642Z" fill="#A4A4A4"/>
</svg>
