<svg width="24" height="25" viewBox="0 0 24 25" fill="none" xmlns="http://www.w3.org/2000/svg">
<path d="M22.0828 11.7342C19.8609 7.05371 16.5023 4.69824 12 4.69824C7.49531 4.69824 4.13906 7.05371 1.91719 11.7365C1.82807 11.9252 1.78185 12.1313 1.78185 12.34C1.78185 12.5487 1.82807 12.7548 1.91719 12.9436C4.13906 17.624 7.49765 19.9795 12 19.9795C16.5047 19.9795 19.8609 17.624 22.0828 12.9412C22.2633 12.5615 22.2633 12.1209 22.0828 11.7342ZM12 18.292C8.21953 18.292 5.45156 16.3748 3.49922 12.3389C5.45156 8.30293 8.21953 6.38574 12 6.38574C15.7805 6.38574 18.5484 8.30293 20.5008 12.3389C18.5508 16.3748 15.7828 18.292 12 18.292ZM11.9062 8.21387C9.62812 8.21387 7.78125 10.0607 7.78125 12.3389C7.78125 14.617 9.62812 16.4639 11.9062 16.4639C14.1844 16.4639 16.0312 14.617 16.0312 12.3389C16.0312 10.0607 14.1844 8.21387 11.9062 8.21387ZM11.9062 14.9639C10.4555 14.9639 9.28125 13.7896 9.28125 12.3389C9.28125 10.8881 10.4555 9.71387 11.9062 9.71387C13.357 9.71387 14.5312 10.8881 14.5312 12.3389C14.5312 13.7896 13.357 14.9639 11.9062 14.9639Z" fill="#A4A4A4"/>
</svg>
