<svg width="181" height="45" viewBox="0 0 181 45" fill="none" xmlns="http://www.w3.org/2000/svg">
<path d="M39.1166 30.9832C39.1035 28.2488 39.1035 25.623 39.1035 22.7212C40.4665 23.5598 41.5926 24.1993 42.6457 24.9422C42.8778 25.1059 42.9262 25.6354 42.9311 25.9982C42.9597 28.0956 42.9499 30.1935 42.9649 32.4002C42.9754 35.6229 42.9729 38.7366 42.9733 41.8502C42.9736 43.6821 42.3678 44.3308 40.5334 44.3322C28.5048 44.3414 16.4763 44.3418 4.44777 44.3319C2.70182 44.3304 2.14544 43.742 2.14263 42.0201C2.1354 37.5824 2.15102 33.1445 2.1076 28.7071C2.10013 27.9432 2.3211 27.4789 2.99441 27.1286C3.88363 26.6659 4.73024 26.1213 5.81461 25.4827C5.81461 30.5825 5.81461 35.4871 5.81461 40.4758C6.40466 40.5025 6.8208 40.5378 7.23695 40.5378C17.4359 40.5386 27.6348 40.5232 37.8337 40.5533C38.8254 40.5562 39.1987 40.3337 39.1675 39.2658C39.0879 36.5431 39.134 33.8168 39.1166 30.9832Z" fill="#5EABD9"/>
<path d="M17.5125 17.585C18.1569 17.9182 18.788 18.2629 19.333 18.712C22.8815 21.6363 26.4253 24.5669 29.9223 27.5521C30.2228 27.8087 30.392 28.5639 30.244 28.9378C29.7638 30.1516 29.1077 31.2957 28.495 32.5373C27.0657 34.2291 25.5627 35.709 23.5842 36.6654C22.3497 37.2621 21.3204 37.3315 20.3959 36.1867C20.2322 35.9839 19.9827 35.8503 19.7777 35.6887C20.9434 34.6869 22.0741 33.7152 23.2847 32.6226C23.3583 32.4386 23.3519 32.3755 23.3456 32.3125C23.2535 32.3372 23.1614 32.3618 23.0694 32.3866C21.6894 32.9951 20.3203 33.6309 18.9211 34.1914C18.608 34.3168 18.0681 34.3272 17.8377 34.1392C14.9543 31.7859 12.1086 29.3864 9.11124 26.8799C10.691 26.1284 12.0234 25.4947 13.3559 24.8609C13.3167 24.7439 13.2775 24.6269 13.2383 24.5099C12.789 24.6094 12.339 24.7059 11.8906 24.8096C11.7014 24.8534 11.5186 24.9294 11.3279 24.9621C7.64857 25.5947 7.7078 25.5837 5.6814 21.8252C10.3863 22.5129 14.0534 20.434 17.5125 17.585ZM21.8208 26.3291C21.9012 25.6187 21.9816 24.9083 22.0788 24.0495C21.2697 24.3259 20.6527 24.5302 20.0402 24.7474C18.6445 25.2424 18.0987 25.9425 18.2478 27.0601C18.3668 27.9521 18.9012 28.4397 19.7846 28.5127C20.7809 28.5951 21.3927 27.9697 21.8208 26.3291Z" fill="#5EABD9"/>
<path d="M23.5916 6.03359C23.3583 5.83051 23.1198 5.63307 22.8926 5.42331C22.1201 4.70993 21.4633 4.7135 20.582 5.42117C17.3255 8.0362 13.9924 10.5558 10.6308 13.1727C8.14058 15.0338 5.69997 16.8234 3.27749 18.6373C2.00163 19.5926 1.00471 19.6436 0.330485 18.7261C-0.30995 17.8545 -0.00586937 16.6737 1.12363 15.8029C7.37161 10.9864 13.6256 6.17769 19.9218 1.29868C21.4781 0.233827 22.0226 0.287475 23.489 1.4039C26.1036 3.39448 28.7442 5.35092 31.3723 7.32375C31.5193 7.43414 31.6519 7.56377 31.8783 7.75984C31.1133 8.63444 30.3887 9.46272 29.5386 10.2322C27.4725 8.79342 25.532 7.4135 23.5916 6.03359Z" fill="#5FABDB"/>
<path d="M98.5308 20.3149C98.8679 20.3322 99.1178 20.3422 99.5459 20.3594C100.44 20.6936 101.155 21.0206 101.87 21.3476C102.175 21.3061 102.48 21.2646 102.892 21.1117C104.342 20.7754 105.684 20.5503 107.027 20.3253C110.148 21.0809 111.144 22.4871 111.222 26.331C111.233 28.0665 111.193 29.6991 111.237 31.3294C111.265 32.327 110.73 32.6448 109.88 32.6592C109 32.674 108.097 32.6747 108.09 31.4134C108.079 29.4313 108.079 27.4491 108.052 25.4672C108.03 23.8311 107.207 22.9146 105.824 22.9359C104.38 22.9582 103.551 23.841 103.531 25.4581C103.507 27.4011 103.495 29.3456 103.547 31.2876C103.572 32.2522 103.146 32.6585 102.247 32.6507C101.353 32.6429 100.505 32.5817 100.516 31.3276C100.534 29.3846 100.514 27.441 100.491 25.4979C100.47 23.7573 99.8098 23.0498 98.2483 23.047C96.6473 23.0442 95.8399 23.8428 95.8423 25.5209C95.845 27.4241 95.8775 29.3282 95.9504 31.2299C95.9958 32.4138 95.3541 32.6565 94.3452 32.6745C93.2832 32.6935 92.7268 32.3611 92.8157 31.2008C92.8779 30.3897 92.8209 29.5695 92.8012 28.6453C92.7959 27.2963 92.8931 26.0486 92.7962 24.8161C92.6592 23.0726 94.0766 20.8599 96.1685 20.4809C96.9129 20.3461 97.6845 20.3611 98.5308 20.3149Z" fill="#63ABD7"/>
<path d="M51.1267 31.6538C51.1313 27.0288 51.1733 22.482 51.1604 17.9354C51.1576 16.9376 51.4821 16.5444 52.511 16.5765C54.5304 16.6396 56.5548 16.5501 58.5737 16.6215C60.5698 16.6922 62.0297 17.7093 62.8489 19.5229C63.7288 21.4708 63.4774 23.3292 62.1589 25.114C61.5937 25.6109 61.0427 26.0277 60.3674 26.5383C61.1923 27.8294 62.0327 29.1194 62.8447 30.4271C63.2293 31.0465 64.0094 31.6675 63.0931 32.4311C62.4568 32.9613 60.6784 32.7453 60.2281 32.0569C59.357 30.7251 58.5929 29.3223 57.6994 28.0068C57.3851 27.5439 56.8579 26.9943 56.3654 26.9243C54.3683 26.6405 54.3577 26.7036 54.3567 28.7104C54.3562 29.5657 54.3745 30.421 54.3654 31.2762C54.3577 32.0073 54.1246 32.6392 53.277 32.6488C52.4601 32.658 51.3854 33.1172 51.1267 31.6538ZM55.7793 24.1113C56.5546 24.1048 57.3345 24.1499 58.104 24.0799C59.2982 23.9714 60.139 23.1259 60.2703 22.0075C60.4053 20.8584 59.8335 19.6819 58.7898 19.5614C57.3239 19.3923 55.8239 19.5187 54.3454 19.5187C54.3454 21.0746 54.3454 22.5316 54.3454 24.1113C54.8027 24.1113 55.1794 24.1113 55.7793 24.1113Z" fill="#5FA9D8"/>
<path d="M123.238 31.5906C119.354 28.0769 118.757 23.5681 121.531 19.2362C122.843 17.1863 126.426 15.6868 128.977 16.2506C130.239 16.5297 131.529 16.9115 132.656 17.5243C133.966 18.2368 133.931 19.2338 132.647 20.2495C131.839 20.1708 131.105 20.1451 130.53 19.8299C129.101 19.0468 125.614 19.3524 124.519 20.462C122.573 22.433 122.324 26.0133 124.097 28.2325C125.829 30.4004 128.79 30.7281 131.318 29.0808C131.703 28.8299 132.228 28.7938 132.754 28.7015C133.945 29.645 134.027 30.3132 133.163 31.5176C129.9 33.525 126.617 33.5859 123.238 31.5906Z" fill="#9CBF50"/>
<path d="M149.072 20.364C149.72 20.6552 150.368 20.9465 151.095 21.2533C152.923 22.593 153.815 24.3494 153.723 26.5422C153.708 26.9164 153.337 27.2758 152.96 27.7134C150.253 27.7849 147.715 27.7849 145.15 27.7849C145.464 29.255 146.427 30.1995 147.833 30.1422C148.915 30.0981 150.024 29.7859 151.042 29.3898C151.686 29.1394 152.172 28.956 152.708 29.4738C152.819 29.8046 152.93 30.1355 153.058 30.5524C152.495 31.1997 152.01 31.9912 151.317 32.2804C148.957 33.2638 146.587 33.156 144.249 31.8377C142.273 30.2377 140.74 26.6419 142.643 23.2406C143.449 22.3569 144.174 21.5987 144.9 20.8404C146.065 20.6795 147.231 20.5187 148.577 20.3628C148.863 20.3665 148.968 20.3652 149.072 20.364ZM148.247 25.4474C149.082 25.4474 149.917 25.4474 150.767 25.4474C150.485 23.7951 149.451 22.917 147.893 22.9108C146.383 22.9048 145.32 23.8128 145.024 25.4461C146.032 25.4461 147.025 25.4461 148.247 25.4474Z" fill="#9DBE52"/>
<path d="M156.768 31.9937C154.959 30.5668 154.756 28.9317 156.135 26.4823C157.356 25.9325 158.469 25.4949 159.66 25.0667C159.843 25.0593 159.946 25.0425 160.157 25.0404C161.127 25.0388 161.991 25.0225 162.937 25.0194C163.07 24.7853 163.119 24.5378 163.161 24.2191C163.064 24.0498 162.975 23.9518 162.847 23.7817C162.435 23.5405 162.061 23.3714 161.614 23.1852C161.439 23.1549 161.339 23.1417 161.239 23.1285C160.542 23.1162 159.842 23.0635 159.148 23.1061C158.693 23.1341 158.239 23.2725 157.799 23.4102C156.903 23.6912 156.364 23.2666 156.117 22.4869C155.857 21.6706 156.372 21.101 157.06 20.8789C159.165 20.1996 161.331 20.0645 163.458 20.7235C164.973 21.1932 166.017 22.2848 166.104 23.9122C166.215 25.9828 166.12 28.0644 166.099 30.232C164.221 32.9874 160.242 33.718 156.768 31.9937ZM158.46 29.5552C159.495 30.3783 161.53 30.4597 162.71 29.7336C163.656 29.1514 163.549 28.2972 163.368 27.2297C162.019 27.346 160.702 27.3608 159.429 27.6037C158.578 27.766 157.963 28.353 158.46 29.5552Z" fill="#9DBE52"/>
<path d="M78.7181 28.3327C78.009 26.2063 78.5244 24.3916 79.6425 22.6068C80.5043 21.2312 81.7714 20.6317 83.2317 20.407C84.8155 20.1633 86.4421 20.277 87.8523 21.0917C88.541 21.4895 89.1204 22.2028 89.552 22.8961C90.9619 25.1607 91.0612 27.5395 89.873 30.0405C88.2579 32.202 86.2151 33.2127 83.5733 32.8283C80.964 32.4486 79.4418 30.878 78.7181 28.3327ZM84.3033 22.9502C82.0247 23.3403 80.9435 25.4528 81.7287 27.9805C82.2233 29.5723 83.7681 30.437 85.3879 30.0286C87.0814 29.6016 87.8095 28.3547 87.6722 26.117C87.5513 24.1458 86.574 23.1715 84.3033 22.9502Z" fill="#63ABD7"/>
<path d="M64.9093 25.4263C65.387 22.4314 67.369 20.5432 69.9707 20.356C74.1012 20.0588 76.0315 22.2245 76.7973 24.8015C77.1227 25.8963 76.8889 27.1572 76.9079 28.4393C75.1611 32.5334 71.5489 34.0106 67.946 32.2004C65.8381 31.1414 64.5857 28.4019 64.9093 25.4263ZM73.8882 25.4071C73.6185 24.0961 72.8593 23.2424 71.5242 23.0043C70.3776 22.7998 69.2904 23.0686 68.5965 24.0168C67.6312 25.3358 67.5969 26.8195 68.2142 28.3315C68.6999 29.521 69.6476 30.066 70.844 30.12C72.0011 30.1723 73.1075 29.7223 73.5276 28.6291C73.8834 27.7031 73.8104 26.6123 73.8882 25.4071Z" fill="#5EABD9"/>
<path d="M169.156 32.2704C169.045 29.6092 168.896 27.0048 168.957 24.4053C169.005 22.3546 171.017 20.6987 173.608 20.3988C177.663 19.9297 180.639 21.9352 180.476 26.3316C180.41 28.1182 180.481 29.9099 180.5 31.7943C179.939 32.9938 178.897 32.7797 178.057 32.5439C177.724 32.4506 177.463 31.5576 177.438 31.0163C177.357 29.2691 177.432 27.5153 177.388 25.7656C177.341 23.9026 176.378 23.0602 174.455 23.1085C172.793 23.1504 172.047 23.9962 172.049 25.8501C172.051 27.4452 172.053 29.0405 172.071 30.6355C172.093 32.6386 171.072 33.2471 169.156 32.2704Z" fill="#9DBE52"/>
<path d="M139.495 29.9238C140.388 29.8534 140.751 30.3312 140.777 31.3378C140.756 31.7676 140.73 32.0207 140.704 32.2739C139.493 33.1934 138.249 32.8467 136.86 32.328C136.38 31.4159 135.924 30.5724 135.735 29.6727C135.548 28.7793 135.629 27.8294 135.628 26.8004C135.635 25.6715 135.608 24.6465 135.58 23.6216C135.563 21.6115 135.618 19.5972 135.502 17.5928C135.428 16.3023 136.037 16.1541 137.096 16.1294C138.188 16.1038 138.635 16.4114 138.618 17.565C138.564 21.0599 138.587 24.5562 138.609 28.0518C138.612 28.5818 138.77 29.1108 138.97 29.7552C139.22 29.888 139.357 29.9059 139.495 29.9238Z" fill="#9ABB4E"/>
<path d="M114.02 22.1053C114.129 20.5962 114.386 20.3891 115.687 20.3809C116.972 20.3729 117.088 21.1597 117.081 22.1578C117.063 24.757 117.088 27.3565 117.114 30.0641C117.117 30.4819 117.093 30.7913 117.089 31.101C117.072 32.4087 116.819 32.6326 115.534 32.6916C114.429 32.7423 114.017 32.2888 114.034 31.1813C114.078 28.1927 114.042 25.2029 114.02 22.1053Z" fill="#63ABD7"/>
<path d="M18.3514 15.578C19.0949 14.715 19.6936 15.049 20.3685 15.6199C24.1529 18.8214 27.957 21.9996 31.7646 25.1736C32.7964 26.0337 32.7877 26.5218 31.5602 27.6461C29.7474 26.1602 27.9144 24.6713 26.0966 23.1643C23.7759 21.2405 21.4609 19.3098 19.1609 17.3614C18.8167 17.07 18.5675 16.6664 18.2483 16.2364C18.2558 15.9914 18.2894 15.8248 18.3514 15.578Z" fill="#9DC34F"/>
<path d="M135.593 26.9043C135.629 27.8294 135.547 28.7793 135.735 29.6727C135.924 30.5723 136.38 31.4159 136.773 32.3462C135.537 33.4653 134.225 33.1976 133.2 31.5971C134.027 30.3133 133.945 29.6451 132.764 28.6048C133.22 27.4069 134.581 26.6713 135.593 26.9043Z" fill="#FBFCF9"/>
<path d="M140.793 32.2737C140.73 32.0205 140.756 31.7673 140.817 31.4252C141.334 31.3864 141.969 31.2823 141.627 32.2039C141.359 32.274 141.121 32.2738 140.793 32.2737Z" fill="#FDFDFD"/>
<path d="M133.063 32.8848C133.036 32.9883 132.971 33.0518 132.901 33.1104C132.9 33.1119 132.852 33.0595 132.826 33.0323C132.892 32.9695 132.958 32.9068 133.063 32.8848Z" fill="#FBFCF9"/>
<path d="M29.7388 12.2442C32.7086 8.5952 35.6729 4.94178 38.6527 1.30109C39.2389 0.585027 39.822 -0.0798364 40.9479 0.00779886C42.5632 0.133542 43.6003 1.6403 42.7644 3.02957C42.0532 4.2117 41.0854 5.24218 40.2091 6.32181C37.4096 9.77056 34.5998 13.2109 31.7648 16.6904C30.6308 15.7932 29.5576 14.9486 28.4978 14.0875C28.4588 14.0559 28.551 13.8628 28.682 13.6387C29.1009 13.103 29.4198 12.6736 29.7388 12.2442ZM40.2023 1.70279C39.5136 2.5553 39.5966 3.4249 40.4127 3.4581C40.8091 3.47422 41.4949 3.04788 41.581 2.70433C41.7971 1.84261 41.1963 1.55105 40.2023 1.70279Z" fill="#9DC34F"/>
<path d="M26.2099 14.0311C28.436 14.8834 30.3299 16.1945 31.6051 18.2337C32.8099 20.1602 33.1068 22.24 32.2946 24.5219C30.328 22.9148 28.4146 21.3774 26.5308 19.8047C24.631 18.2185 22.7604 16.5973 20.6375 14.7871C21.6295 14.4452 22.4352 14.1676 23.4285 13.8672C24.4808 13.9066 25.3453 13.9689 26.2099 14.0311Z" fill="#9DC34F"/>
<path d="M35.7268 13.7926C36.2862 13.1519 36.7852 12.5719 37.3865 11.873C39.3084 13.3 41.2203 14.6435 43.0417 16.1002C44.1488 16.9857 44.1764 17.7131 43.418 18.6839C42.9368 19.3 41.5901 19.433 40.7983 18.8704C39.0797 17.6493 37.3664 16.4174 35.716 15.1078C35.5022 14.9382 35.6734 14.2835 35.7268 13.7926Z" fill="#5FABDB"/>
<path d="M152.803 29.4716C152.172 28.9555 151.686 29.1389 151.043 29.3894C150.025 29.7855 148.916 30.0977 147.833 30.1418C146.428 30.199 145.464 29.2546 145.15 27.7844C147.716 27.7844 150.254 27.7844 152.898 27.7715C153.304 27.9718 153.604 28.185 154.114 28.5475C153.655 28.8949 153.276 29.1824 152.803 29.4716Z" fill="#FBFCF9"/>
<path d="M159.582 25.0575C158.469 25.495 157.356 25.9326 156.171 26.4058C155.968 26.2729 155.838 26.1042 155.708 25.9356C156.748 25.1596 157.219 23.646 158.848 23.6148C159.607 23.6003 160.362 23.3922 161.179 23.2002C161.339 23.1418 161.44 23.155 161.63 23.2648C162.108 23.5255 162.497 23.6897 162.886 23.8538C162.975 23.9519 163.065 24.0499 163.09 24.2638C162.968 24.5885 162.911 24.7974 162.855 25.0062C161.991 25.0226 161.127 25.0389 160.147 24.9708C159.931 24.8181 159.832 24.7498 159.733 24.6815C159.683 24.8068 159.632 24.9322 159.582 25.0575Z" fill="#FBFCF9"/>
<path d="M110.775 18.4657C109.169 16.5187 108.971 15.5217 108.958 13.8152C111.452 12.985 114.503 15.5705 114.341 18.4357C113.708 17.848 113.098 17.281 112.488 16.7141C112.431 16.7776 112.374 16.8411 112.317 16.9046C112.823 17.6355 113.328 18.3664 113.833 19.0973C113.78 19.2021 113.728 19.307 113.675 19.4119C113.162 19.33 112.648 19.2481 112.005 19.0956C111.509 18.8385 111.142 18.6521 110.775 18.4657Z" fill="#9DBE52"/>
<path d="M116.469 19.3712C116.4 19.1386 116.208 18.8481 116.285 18.6838C116.557 18.1034 116.921 17.5663 117.068 16.8225C116.61 17.4315 116.153 18.0405 115.603 18.7727C114.676 16.425 117.481 13.2012 120.461 13.6801C120.83 15.0332 120.357 16.2215 119.598 17.4773C119.392 17.7209 119.278 17.8595 119.165 17.9981C118.746 18.3 118.328 18.602 117.754 18.9321C117.222 19.0973 116.845 19.2343 116.469 19.3712Z" fill="#9CBF50"/>
<path d="M107.028 20.2357C105.685 20.5501 104.342 20.7751 102.924 21.037C102.806 20.9489 102.704 20.729 102.73 20.7126C103.63 20.1481 104.493 19.4834 105.466 19.0921C106.267 18.77 106.997 19.0685 107.028 20.2357Z" fill="#FDFDFD"/>
<path d="M144.806 20.8369C144.175 21.5985 143.449 22.3568 142.655 23.1537C141.98 22.1538 142.901 21.7214 143.452 21.2284C143.751 20.9609 144.285 20.9566 144.806 20.8369Z" fill="#FDFDFD"/>
<path d="M101.875 21.2573C101.155 21.0209 100.44 20.6938 99.6394 20.3473C99.8086 20.1225 100.228 19.6985 100.291 19.7464C100.857 20.1724 101.359 20.6819 101.875 21.2573Z" fill="#FDFDFD"/>
<path d="M116.554 19.4061C116.845 19.2343 117.222 19.0973 117.685 18.9697C117.823 19.2345 117.873 19.49 117.966 19.9619C117.433 19.7528 117.036 19.5969 116.554 19.4061Z" fill="#FDFDFD"/>
<path d="M119.177 18.0776C119.278 17.8592 119.392 17.7206 119.567 17.5532C119.622 17.8294 119.615 18.1343 119.609 18.4393C119.469 18.3454 119.33 18.2514 119.177 18.0776Z" fill="#FDFDFD"/>
<path d="M149.064 20.2955C148.968 20.3651 148.863 20.3664 148.683 20.349C148.685 20.2186 148.764 20.1069 148.843 19.9951C148.914 20.0725 148.984 20.1498 149.064 20.2955Z" fill="#FDFDFD"/>
<path d="M105.536 16.7505C105.64 16.7773 105.703 16.8426 105.762 16.9121C105.764 16.9139 105.711 16.9612 105.684 16.9872C105.621 16.9213 105.558 16.8555 105.536 16.7505Z" fill="#FDFDFD"/>
<path d="M139.485 29.8543C139.357 29.9058 139.22 29.8879 139.045 29.8094C139.164 29.7608 139.32 29.7729 139.485 29.8543Z" fill="#FDFDFD"/>
<path d="M21.8046 26.4243C21.3935 27.9695 20.7818 28.5949 19.7855 28.5126C18.902 28.4395 18.3677 27.9519 18.2487 27.0599C18.0996 25.9424 18.6454 25.2422 20.0411 24.7472C20.6535 24.53 21.2706 24.3258 22.0796 24.0493C21.9824 24.9081 21.902 25.6185 21.8046 26.4243Z" fill="#FBFCF9"/>
<path d="M23.1182 32.4422C23.1617 32.3619 23.2538 32.3372 23.3458 32.3125C23.3522 32.3756 23.3585 32.4387 23.3184 32.5516C23.2369 32.567 23.2018 32.5325 23.1182 32.4422Z" fill="#FBFBFB"/>
<path d="M55.6673 24.1116C55.179 24.1116 54.8022 24.1116 54.345 24.1116C54.345 22.5319 54.345 21.0749 54.345 19.519C55.8235 19.519 57.3235 19.3926 58.7894 19.5618C59.8331 19.6822 60.4048 20.8587 60.2699 22.0078C60.1386 23.1262 59.2977 23.9717 58.1036 24.0803C57.3341 24.1502 56.5541 24.1051 55.6673 24.1116Z" fill="#FBFBFB"/>
<path d="M148.133 25.4466C147.026 25.4459 146.032 25.4459 145.024 25.4459C145.32 23.8126 146.383 22.9047 147.893 22.9107C149.451 22.9168 150.486 23.795 150.767 25.4472C149.917 25.4472 149.083 25.4472 148.133 25.4466Z" fill="#FBFCF9"/>
<path d="M158.415 29.477C157.963 28.3532 158.578 27.7663 159.428 27.604C160.702 27.3611 162.018 27.3462 163.368 27.23C163.549 28.2974 163.656 29.1516 162.71 29.7339C161.53 30.46 159.495 30.3786 158.415 29.477Z" fill="#FBFCF9"/>
<path d="M162.847 23.7816C162.497 23.6895 162.108 23.5254 161.703 23.2817C162.061 23.3714 162.435 23.5405 162.847 23.7816Z" fill="#FDFDFD"/>
<path d="M162.937 25.0194C162.911 24.7973 162.968 24.5884 163.097 24.335C163.119 24.5379 163.069 24.7853 162.937 25.0194Z" fill="#FDFDFD"/>
<path d="M159.66 25.0669C159.632 24.9323 159.682 24.807 159.733 24.6816C159.832 24.7499 159.931 24.8182 160.04 24.9562C159.946 25.0427 159.843 25.0595 159.66 25.0669Z" fill="#FDFDFD"/>
<path d="M84.3989 22.9492C86.5738 23.171 87.551 24.1452 87.672 26.1165C87.8093 28.3542 87.0812 29.601 85.3877 30.028C83.7679 30.4364 82.223 29.5718 81.7285 27.9799C80.9432 25.4522 82.0244 23.3397 84.3989 22.9492Z" fill="#FBFBFB"/>
<path d="M73.9071 25.5012C73.8098 26.6127 73.8829 27.7035 73.5271 28.6295C73.107 29.7227 72.0006 30.1727 70.8435 30.1205C69.6471 30.0664 68.6994 29.5214 68.2137 28.3319C67.5964 26.8199 67.6307 25.3363 68.596 24.0172C69.2899 23.0691 70.3771 22.8002 71.5237 23.0048C72.8588 23.2428 73.6179 24.0965 73.9071 25.5012Z" fill="#FBFBFB"/>
<path d="M40.2976 1.67453C41.1967 1.55103 41.7975 1.84259 41.5814 2.70432C41.4953 3.04787 40.8095 3.4742 40.4131 3.45809C39.597 3.42489 39.514 2.55529 40.2976 1.67453Z" fill="#FBFCF9"/>
</svg>
