<svg width="38" height="38" viewBox="0 0 38 38" fill="none" xmlns="http://www.w3.org/2000/svg">
<path d="M15.2996 0C6.86206 0 0 6.93794 0 15.4504C0 24.0004 6.86206 30.9001 15.2996 30.9001C19.1621 30.9001 22.6872 29.4374 25.3872 27.0374L26.25 27.9001L25.4619 28.7249C25.0119 29.1749 25.0119 29.8876 25.4619 30.3376L32.2119 37.1624C32.4369 37.3874 32.7 37.5 33 37.5C33.3 37.5 33.5999 37.3874 33.7874 37.1624L36.7874 34.125C37.1999 33.675 37.2 32.9628 36.75 32.5503L30 25.7249C29.775 25.4999 29.5119 25.3879 29.2119 25.3879C28.9119 25.3879 28.6121 25.4999 28.4246 25.7249L27.6372 26.5503L26.7744 25.6501C29.1369 22.9126 30.5999 19.3504 30.5999 15.4504C30.5999 6.93794 23.7371 0 15.2996 0ZM15.2996 2.28735C22.4996 2.28735 28.3499 8.21279 28.3499 15.4878C28.3499 22.7628 22.4996 28.6501 15.2996 28.6501C8.09956 28.6501 2.25 22.7628 2.25 15.4878C2.25 8.21279 8.09956 2.28735 15.2996 2.28735ZM15.3369 6.97485C11.7744 6.97485 8.58721 9.26294 7.38721 12.6379C7.19971 13.1254 7.46206 13.725 7.98706 13.875C8.09956 13.9125 8.21221 13.9504 8.32471 13.9504C8.73721 13.9504 9.11221 13.6876 9.26221 13.2751C10.1622 10.6876 12.6369 8.92529 15.3369 8.92529C15.8619 8.92529 16.3125 8.47544 16.3125 7.95044C16.3125 7.42544 15.8619 6.97485 15.3369 6.97485ZM8.21192 16.2378C7.68691 16.2378 7.23706 16.6501 7.23706 17.2126V17.3628C7.27456 17.8878 7.6875 18.3376 8.25 18.3376C8.775 18.3376 9.22485 17.8878 9.22485 17.3628V17.25C9.22485 16.6875 8.8125 16.2378 8.25 16.2378H8.21192ZM29.25 28.125L34.4246 33.375L33 34.8003L27.8247 29.5503L29.25 28.125Z" fill="#58B6DF"/>
</svg>
