<svg width="21" height="21" viewBox="0 0 21 21" fill="none" xmlns="http://www.w3.org/2000/svg">
<path d="M20.7782 7.48018C20.7127 7.28733 20.5922 7.11787 20.4315 6.99274C20.2708 6.8676 20.077 6.79226 19.874 6.77601L13.9354 6.30413L11.3657 0.615591C11.2838 0.432375 11.1507 0.27676 10.9824 0.167526C10.814 0.0582929 10.6177 0.000110291 10.417 1.56644e-07C10.2164 -0.000109977 10.02 0.0578571 9.85151 0.166906C9.68306 0.275954 9.54978 0.431423 9.46774 0.61455L6.89794 6.30413L0.959402 6.77601C0.759877 6.79182 0.569129 6.86477 0.40998 6.98614C0.250831 7.10752 0.13002 7.27218 0.0619994 7.46041C-0.00602123 7.64865 -0.0183708 7.8525 0.0264283 8.04757C0.0712274 8.24265 0.171278 8.42068 0.314611 8.56038L4.70315 12.8385L3.15107 19.5593C3.10394 19.7628 3.11905 19.9757 3.19442 20.1704C3.2698 20.3652 3.40197 20.5328 3.57378 20.6515C3.74559 20.7702 3.94911 20.8345 4.15793 20.8361C4.36674 20.8377 4.57122 20.7765 4.74482 20.6604L10.4167 16.8791L16.0886 20.6604C16.266 20.7782 16.4753 20.8388 16.6882 20.8342C16.9011 20.8295 17.1075 20.7597 17.2796 20.6343C17.4517 20.5088 17.5813 20.3336 17.6508 20.1323C17.7204 19.931 17.7267 19.7133 17.6688 19.5083L15.7636 12.8416L20.4886 8.58955C20.7979 8.31038 20.9115 7.87497 20.7782 7.48018Z" fill="#58B6DF"/>
</svg>
